<?xml version="1.0" encoding="iso-8859-1"?>
<!-- Generator: Adobe Illustrator 16.0.0, SVG Export Plug-In . SVG Version: 6.00 Build 0)  -->
<!DOCTYPE svg PUBLIC "-//W3C//DTD SVG 1.1//EN" "http://www.w3.org/Graphics/SVG/1.1/DTD/svg11.dtd">
<svg xmlns="http://www.w3.org/2000/svg" xmlns:xlink="http://www.w3.org/1999/xlink" version="1.1" id="Capa_1" x="0px" y="0px" width="100px" height="100px" viewBox="0 0 124.4 124.4" style="enable-background:new 0 0 124.4 124.4;" xml:space="preserve">
<g>
	<path d="M117.3,58.535H94l-10.5-12.8c-1.5-1.8-3.8-2.8-6.2-2.5c-2.3,0.3-4.3,1.7-5.399,3.8l-12,23.601l-0.2-45.801   c0-3.3-2.3-6.1-5.5-6.8c-3.2-0.7-6.4,0.8-7.8,3.8l-17.8,36.7H7c-3.9,0-7,3.101-7,7c0,3.9,3.1,7,7,7h26c2.7,0,5.1-1.5,6.3-4   l6.5-13.399L46,99.535c0,3.2,2.2,6,5.4,6.8c0.5,0.101,1.1,0.2,1.6,0.2c2.6,0,5-1.399,6.2-3.8l20.3-39.8l5.8,7   c1.3,1.6,3.3,2.6,5.4,2.6h26.7c3.899,0,7-3.1,7-7C124.4,61.636,121.2,58.535,117.3,58.535z" fill="#f67743"/>
</g>
<g>
</g>
<g>
</g>
<g>
</g>
<g>
</g>
<g>
</g>
<g>
</g>
<g>
</g>
<g>
</g>
<g>
</g>
<g>
</g>
<g>
</g>
<g>
</g>
<g>
</g>
<g>
</g>
<g>
</g>
</svg>
