<?xml version="1.0" encoding="iso-8859-1"?><!DOCTYPE html> <svg height=70px id=Capa_1 style="enable-background:new 0 0 612 612"version=1.1 viewBox="0 0 612 612"width=70px x=0px xml:space=preserve xmlns=http://www.w3.org/2000/svg xmlns:xlink=http://www.w3.org/1999/xlink y=0px><g><g id=Portfolio><g><path d="M573.75,133.875H459V76.5c0-21.114-17.117-38.25-38.25-38.25h-229.5C170.136,38.25,153,55.367,153,76.5v57.375H38.25     c-21.114,0-38.25,17.136-38.25,38.25V535.5c0,21.114,17.136,38.25,38.25,38.25h535.5c21.114,0,38.25-17.136,38.25-38.25V172.125     C612,151.011,594.864,133.875,573.75,133.875z M210.375,95.625h191.25v38.25h-191.25V95.625z M554.625,516.375H57.375v-153     h191.25V382.5h114.75v-19.125h191.25V516.375z M554.625,306h-191.25v-19.125h-114.75V306H57.375V191.25h497.25V306z"fill=#f27935 /></g></g></g><g></g><g></g><g></g><g></g><g></g><g></g><g></g><g></g><g></g><g></g><g></g><g></g><g></g><g></g><g></g></svg>